<?xml version="1.0" encoding="utf-8"?>
<!-- Generator: Adobe Illustrator 27.9.4, SVG Export Plug-In . SVG Version: 9.03 Build 54784)  -->
<svg version="1.1" id="Layer_1" xmlns="http://www.w3.org/2000/svg" xmlns:xlink="http://www.w3.org/1999/xlink" x="0px" y="0px"
	 viewBox="0 0 1366 444.91" style="enable-background:new 0 0 1366 444.91;" xml:space="preserve">
<style type="text/css">
	.st0{fill:#00684A;}
	.st1{fill:#009688;}
	.st2{fill:#FFFFFF;}
</style>
<path class="st0" d="M449.92-321.89c-10.79-12.8-20.07-25.79-21.97-28.49c-0.2-0.2-0.5-0.2-0.7,0c-1.9,2.7-11.19,15.7-21.97,28.49
	c-92.58,118.08,14.58,197.76,14.58,197.76l0.9,0.6c0.8,12.3,2.8,29.99,2.8,29.99h3.99h3.99c0,0,2-17.6,2.8-29.99l0.9-0.7
	C435.34-124.13,542.5-203.81,449.92-321.89z M427.55-125.83c0,0-4.79-4.1-6.09-6.2v-0.2l5.79-128.58c0-0.4,0.6-0.4,0.6,0
	l5.79,128.58v0.2C432.34-129.92,427.55-125.83,427.55-125.83z"/>
<g>
	<path class="st0" d="M442.69,353.75l-48-116.4l-0.11-0.32h-37.35v7.82h6.03c1.83,0,3.55,0.75,4.84,2.04c1.29,1.29,1.94,3,1.94,4.82
		l-1.08,117.15c0,3.64-3.01,6.65-6.67,6.75l-6.13,0.11v7.72h36.38v-7.72l-3.77-0.11c-3.66-0.11-6.67-3.11-6.67-6.75v-110.4
		l52.31,124.98c0.75,1.82,2.47,3,4.41,3c1.94,0,3.66-1.18,4.41-3l51.12-122.19l0.75,107.62c0,3.75-3.01,6.75-6.78,6.86h-3.88v7.72
		h42.62v-7.72h-5.81c-3.66,0-6.67-3.11-6.78-6.75l-0.32-117.16c0-3.75,3.01-6.75,6.67-6.86l6.24-0.11v-7.82h-36.38L442.69,353.75z"
		/>
	<path class="st0" d="M777.39,373.69c-1.19-1.18-1.84-2.78-1.84-4.71v-57.39c0-10.92-3.24-19.49-9.71-25.59
		c-6.37-6.1-15.21-9.21-26.22-9.21c-15.43,0-27.63,6.21-36.15,18.41c-0.11,0.21-0.43,0.32-0.75,0.32c-0.32,0-0.54-0.21-0.54-0.54
		l-3.99-15.31h-6.69l-17.16,9.74v5.35h4.42c2.05,0,3.78,0.54,4.96,1.61c1.19,1.07,1.83,2.68,1.83,4.93v67.56
		c0,1.93-0.65,3.53-1.83,4.71c-1.19,1.18-2.81,1.82-4.75,1.82h-4.32v7.82h39.49v-7.82h-4.32c-1.94,0-3.56-0.64-4.75-1.82
		c-1.19-1.18-1.83-2.78-1.83-4.71v-44.75c0-5.67,1.3-11.35,3.67-16.92c2.48-5.46,6.15-10.06,11.01-13.6
		c4.86-3.53,10.68-5.25,17.37-5.25c7.55,0,13.27,2.36,16.83,7.07c3.56,4.71,5.4,10.81,5.4,18.09v55.24c0,1.93-0.65,3.53-1.83,4.71
		c-1.19,1.18-2.81,1.82-4.75,1.82h-4.32v7.81h39.49v-7.81h-4.32C780.2,375.51,778.68,374.87,777.39,373.69z"/>
	<path class="st0" d="M1138.23,245.85c-10.92-5.81-23.12-8.83-36.28-8.83h-51.37v7.86h5.03c1.93,0,3.64,0.75,5.35,2.48
		c1.61,1.61,2.46,3.45,2.46,5.38v115.83c0,1.94-0.86,3.77-2.46,5.38c-1.6,1.61-3.42,2.48-5.35,2.48h-5.03v7.86h51.37
		c13.16,0,25.37-3.01,36.28-8.83c10.92-5.81,19.8-14.43,26.22-25.41c6.42-10.98,9.74-24.22,9.74-39.29c0-15.07-3.32-28.2-9.74-39.29
		C1157.92,260.28,1149.14,251.67,1138.23,245.85z M1153.53,310.55c0,13.78-2.46,25.41-7.28,34.77
		c-4.82,9.37-11.24,16.36-19.16,20.88c-7.92,4.52-16.7,6.78-26.11,6.78h-10.38c-1.93,0-3.64-0.75-5.35-2.48
		c-1.61-1.61-2.46-3.44-2.46-5.38V255.87c0-1.94,0.75-3.66,2.46-5.38c1.6-1.61,3.42-2.48,5.35-2.48h10.38
		c9.42,0,18.2,2.26,26.11,6.78c7.92,4.52,14.34,11.52,19.16,20.89C1151.07,285.04,1153.53,296.77,1153.53,310.55z"/>
	<path class="st0" d="M1295.62,318.41c-4.75-5.49-13.92-10.12-24.7-12.6c14.89-7.43,22.54-17.87,22.54-31.33
		c0-7.32-1.93-13.89-5.83-19.49c-3.88-5.6-9.38-10.12-16.39-13.24c-7.02-3.12-15.22-4.74-24.5-4.74h-58.15v7.86h4.64
		c1.94,0,3.67,0.75,5.39,2.48c1.62,1.61,2.48,3.45,2.48,5.38v115.83c0,1.94-0.86,3.77-2.48,5.38c-1.62,1.61-3.45,2.48-5.39,2.48
		h-5.07v7.86h63.12c9.6,0,18.55-1.61,26.65-4.84c8.09-3.23,14.57-7.97,19.21-14.21c4.74-6.24,7.12-13.89,7.12-22.71
		C1304.15,333.05,1301.34,324.98,1295.62,318.41z M1223.23,370.62c-1.62-1.61-2.48-3.44-2.48-5.38v-52h30
		c10.57,0,18.66,2.69,24.27,8.07c5.61,5.38,8.42,12.38,8.42,20.99c0,5.17-1.3,10.23-3.67,14.86c-2.48,4.74-6.16,8.51-11.11,11.41
		c-4.86,2.91-10.9,4.41-17.91,4.41h-22.12C1226.68,373.1,1224.95,372.24,1223.23,370.62z M1220.85,302.16v-46.18
		c0-1.94,0.75-3.66,2.48-5.38c1.62-1.61,3.45-2.48,5.4-2.48h14.24c10.24,0,17.8,2.58,22.55,7.54c4.74,5.06,7.12,11.52,7.12,19.49
		c0,8.18-2.27,14.75-6.69,19.7c-4.43,4.84-11.11,7.32-19.96,7.32H1220.85z"/>
	<path class="st0" d="M627.04,283.67c-8.24-4.51-17.45-6.87-27.41-6.87c-9.96,0-19.27,2.25-27.41,6.87
		c-8.24,4.51-14.78,11.05-19.59,19.31c-4.82,8.26-7.28,17.92-7.28,28.65s2.46,20.38,7.28,28.65c4.82,8.26,11.35,14.81,19.59,19.31
		c8.24,4.51,17.45,6.87,27.41,6.87c9.96,0,19.27-2.25,27.41-6.87c8.24-4.51,14.78-11.05,19.59-19.31
		c4.82-8.26,7.28-17.92,7.28-28.65s-2.46-20.38-7.28-28.65C641.81,294.72,635.28,288.28,627.04,283.67z M634.96,331.62
		c0,13.2-3.21,23.92-9.64,31.65c-6.32,7.72-14.99,11.69-25.7,11.69c-10.71,0-19.38-3.97-25.7-11.69
		c-6.42-7.72-9.64-18.45-9.64-31.65c0-13.2,3.21-23.92,9.64-31.65c6.32-7.72,14.99-11.69,25.7-11.69c10.71,0,19.38,3.97,25.7,11.69
		C631.75,307.8,634.96,318.43,634.96,331.62z"/>
	<path class="st0" d="M1006.49,283.67c-8.24-4.51-17.45-6.87-27.41-6.87c-9.96,0-19.27,2.25-27.41,6.87
		c-8.24,4.51-14.78,11.05-19.59,19.31c-4.82,8.26-7.28,17.92-7.28,28.65s2.46,20.38,7.28,28.65c4.82,8.26,11.35,14.81,19.59,19.31
		c8.24,4.51,17.45,6.87,27.41,6.87c9.96,0,19.27-2.25,27.41-6.87c8.24-4.51,14.78-11.05,19.59-19.31
		c4.82-8.26,7.28-17.92,7.28-28.65s-2.46-20.38-7.28-28.65C1021.27,294.72,1014.63,288.28,1006.49,283.67z M1014.42,331.62
		c0,13.2-3.21,23.92-9.64,31.65c-6.32,7.72-14.99,11.69-25.7,11.69c-10.71,0-19.38-3.97-25.7-11.69
		c-6.42-7.72-9.64-18.45-9.64-31.65c0-13.3,3.21-23.92,9.64-31.65c6.32-7.72,14.99-11.69,25.7-11.69c10.71,0,19.38,3.97,25.7,11.69
		C1011.1,307.8,1014.42,318.43,1014.42,331.62z"/>
	<path class="st0" d="M853.47,276.8c-8.63,0-16.5,1.83-23.62,5.5c-7.12,3.66-12.72,8.62-16.71,14.98
		c-3.99,6.25-6.04,13.26-6.04,20.69c0,6.68,1.51,12.83,4.64,18.32c3.02,5.28,7.12,9.7,12.29,13.36l-15.42,20.91
		c-1.94,2.59-2.16,6.03-0.75,8.84c1.51,2.91,4.31,4.64,7.55,4.64h4.42c-4.31,2.91-7.76,6.36-10.14,10.45
		c-2.8,4.64-4.21,9.48-4.21,14.44c0,9.27,4.1,16.92,12.18,22.63c7.98,5.71,19.19,8.62,33.32,8.62c9.81,0,19.19-1.62,27.71-4.74
		c8.63-3.12,15.64-7.76,20.81-13.79c5.28-6.04,7.98-13.36,7.98-21.77c0-8.84-3.24-15.09-10.78-21.12
		c-6.47-5.07-16.61-7.76-29.22-7.76h-43.13c-0.11,0-0.22-0.11-0.22-0.11s-0.11-0.21,0-0.32l11.21-15.09c3.02,1.4,5.82,2.26,8.3,2.8
		c2.59,0.54,5.5,0.75,8.73,0.75c9.06,0,17.25-1.83,24.37-5.5c7.12-3.66,12.83-8.62,16.93-14.98c4.1-6.25,6.15-13.26,6.15-20.69
		c0-7.98-3.88-22.53-14.45-29.96c0-0.11,0.11-0.11,0.11-0.11l23.18,2.59v-10.67h-37.09C865.76,277.77,859.72,276.8,853.47,276.8z
		 M866.4,344.16c-4.1,2.16-8.52,3.34-12.94,3.34c-7.22,0-13.59-2.59-18.98-7.65c-5.39-5.07-8.09-12.5-8.09-21.99
		c0-9.49,2.7-16.92,8.09-21.99c5.39-5.07,11.75-7.65,18.98-7.65c4.53,0,8.84,1.08,12.94,3.34c4.1,2.16,7.44,5.5,10.14,9.92
		c2.59,4.42,3.99,9.92,3.99,16.38c0,6.57-1.29,12.07-3.99,16.38C873.95,338.66,870.5,342.01,866.4,344.16z M837.18,383.93h29.22
		c8.09,0,13.26,1.62,16.71,5.07c3.45,3.45,5.18,8.08,5.18,13.47c0,7.87-3.13,14.33-9.38,19.18c-6.26,4.85-14.67,7.33-25.02,7.33
		c-9.06,0-16.61-2.05-22.11-5.93c-5.5-3.88-8.3-9.81-8.3-17.35c0-4.74,1.29-9.16,3.88-13.04
		C829.96,388.78,833.08,385.98,837.18,383.93z"/>
</g>
<g>
	<g>
		<path class="st1" d="M469.77,164.3V18.15h88.16v17.5h-67.7v44.08h60.11v17.29h-60.11v67.28H469.77z"/>
		<path class="st1" d="M606.44,51.89c7.87,0,14.51,1.02,19.93,3.06c5.41,2.04,9.77,4.92,13.07,8.65c3.3,3.73,5.66,8.16,7.07,13.29
			c1.4,5.13,2.11,10.79,2.11,16.98v68.54c-1.69,0.28-4.04,0.67-7.07,1.16c-3.02,0.49-6.43,0.95-10.23,1.37
			c-3.8,0.42-7.91,0.81-12.34,1.16c-4.43,0.35-8.82,0.53-13.18,0.53c-6.19,0-11.88-0.63-17.08-1.9c-5.2-1.27-9.7-3.27-13.5-6.01
			c-3.8-2.74-6.75-6.36-8.86-10.86c-2.11-4.5-3.16-9.91-3.16-16.24c0-6.04,1.23-11.25,3.69-15.61c2.46-4.36,5.8-7.87,10.02-10.55
			c4.22-2.67,9.14-4.64,14.76-5.9c5.62-1.27,11.53-1.9,17.72-1.9c1.97,0,4.01,0.11,6.12,0.32c2.11,0.21,4.11,0.49,6.01,0.84
			c1.9,0.35,3.55,0.67,4.95,0.95c1.4,0.28,2.39,0.49,2.95,0.63v-5.48c0-3.23-0.35-6.43-1.05-9.6c-0.71-3.16-1.97-5.97-3.8-8.44
			c-1.83-2.46-4.32-4.43-7.49-5.91c-3.16-1.48-7.28-2.21-12.34-2.21c-6.47,0-12.13,0.46-16.98,1.37c-4.85,0.92-8.47,1.87-10.86,2.85
			l-2.32-16.24c2.53-1.12,6.75-2.21,12.65-3.27C593.15,52.42,599.55,51.89,606.44,51.89z M608.13,150.17
			c4.64,0,8.75-0.11,12.34-0.32c3.59-0.21,6.57-0.6,8.96-1.16v-32.69c-1.41-0.7-3.69-1.3-6.85-1.79c-3.16-0.49-7-0.74-11.49-0.74
			c-2.95,0-6.08,0.21-9.39,0.63c-3.3,0.42-6.33,1.3-9.07,2.64c-2.74,1.34-5.03,3.16-6.85,5.48c-1.83,2.32-2.74,5.38-2.74,9.17
			c0,7.03,2.25,11.92,6.75,14.66C594.28,148.8,600.39,150.17,608.13,150.17z"/>
		<path class="st1" d="M706.61,150.17c8.01,0,13.95-1.05,17.82-3.16c3.87-2.11,5.8-5.48,5.8-10.12c0-4.78-1.9-8.57-5.7-11.39
			c-3.8-2.81-10.05-5.97-18.77-9.49c-4.22-1.69-8.26-3.41-12.13-5.17c-3.87-1.76-7.21-3.83-10.02-6.22
			c-2.81-2.39-5.06-5.27-6.75-8.65c-1.69-3.37-2.53-7.52-2.53-12.44c0-9.7,3.59-17.4,10.76-23.09c7.17-5.69,16.94-8.54,29.32-8.54
			c3.09,0,6.18,0.18,9.28,0.53c3.09,0.35,5.97,0.77,8.65,1.27c2.67,0.49,5.03,1.02,7.07,1.58c2.04,0.56,3.62,1.05,4.75,1.48
			l-3.59,16.87c-2.11-1.12-5.41-2.28-9.91-3.48c-4.5-1.19-9.91-1.79-16.24-1.79c-5.48,0-10.27,1.09-14.34,3.27
			c-4.08,2.18-6.12,5.59-6.12,10.23c0,2.39,0.45,4.5,1.37,6.33c0.91,1.83,2.32,3.48,4.22,4.96c1.9,1.48,4.25,2.85,7.07,4.11
			c2.81,1.27,6.19,2.6,10.12,4.01c5.2,1.97,9.84,3.9,13.92,5.8c4.08,1.9,7.56,4.11,10.44,6.64c2.88,2.53,5.09,5.59,6.64,9.17
			c1.55,3.59,2.32,7.98,2.32,13.18c0,10.12-3.76,17.79-11.28,22.99c-7.52,5.2-18.24,7.8-32.16,7.8c-9.7,0-17.29-0.81-22.78-2.42
			c-5.48-1.62-9.21-2.85-11.18-3.69l3.59-16.87c2.25,0.84,5.83,2.11,10.76,3.8C691.92,149.33,698.46,150.17,706.61,150.17z"/>
		<path class="st1" d="M793.51,54.63h41.55v16.45h-41.55v50.62c0,5.48,0.42,10.02,1.26,13.6c0.84,3.59,2.11,6.4,3.8,8.44
			c1.69,2.04,3.8,3.48,6.33,4.32c2.53,0.84,5.48,1.27,8.86,1.27c5.91,0,10.65-0.67,14.24-2c3.59-1.33,6.08-2.28,7.49-2.85l3.8,16.24
			c-1.97,0.99-5.41,2.21-10.33,3.69c-4.92,1.48-10.55,2.21-16.87,2.21c-7.45,0-13.6-0.95-18.45-2.85c-4.85-1.9-8.75-4.75-11.7-8.54
			c-2.95-3.8-5.03-8.47-6.22-14.02c-1.2-5.55-1.79-11.99-1.79-19.3V24.05l19.61-3.37V54.63z"/>
		<path class="st1" d="M958.85,164.3c-2.39-6.33-4.64-12.55-6.75-18.67c-2.11-6.12-4.29-12.34-6.54-18.67h-66.22l-13.29,37.33h-21.3
			c5.62-15.46,10.89-29.77,15.82-42.92c4.92-13.15,9.73-25.62,14.45-37.44c4.71-11.81,9.39-23.09,14.02-33.85
			c4.64-10.76,9.49-21.41,14.55-31.95h18.77c5.06,10.55,9.91,21.2,14.55,31.95c4.64,10.76,9.31,22.04,14.03,33.85
			c4.71,11.81,9.52,24.29,14.45,37.44c4.92,13.15,10.19,27.45,15.82,42.92H958.85z M939.66,110.1c-4.5-12.23-8.96-24.08-13.39-35.54
			c-4.43-11.46-9.04-22.46-13.81-33.01c-4.92,10.55-9.6,21.55-14.02,33.01c-4.43,11.46-8.82,23.3-13.18,35.54H939.66z"/>
		<path class="st1" d="M1039.84,16.67c20.53,0,36.31,3.9,47.35,11.71c11.04,7.8,16.56,19.44,16.56,34.9
			c0,8.44-1.51,15.64-4.53,21.62c-3.03,5.98-7.38,10.83-13.08,14.55c-5.69,3.73-12.62,6.43-20.77,8.12
			c-8.16,1.69-17.37,2.53-27.63,2.53h-16.24v54.2h-20.46V20.26c5.76-1.4,12.2-2.35,19.3-2.85
			C1027.43,16.92,1033.93,16.67,1039.84,16.67z M1041.53,34.6c-8.72,0-15.4,0.21-20.04,0.63V92.6h15.4c7.03,0,13.36-0.46,18.98-1.37
			c5.62-0.91,10.37-2.46,14.24-4.64c3.87-2.18,6.85-5.17,8.96-8.96c2.11-3.8,3.16-8.65,3.16-14.55c0-5.62-1.09-10.26-3.27-13.92
			c-2.18-3.65-5.13-6.57-8.86-8.75c-3.73-2.18-8.05-3.69-12.97-4.53C1052.21,35.02,1047.01,34.6,1041.53,34.6z"/>
		<path class="st1" d="M1129.26,18.15h20.46V164.3h-20.46V18.15z"/>
	</g>
</g>
<g>
	<path class="st1" d="M185.49,62.11c-16.21-19.15-30.17-38.6-33.03-42.64c-0.3-0.3-0.75-0.3-1.05,0
		c-2.85,4.04-16.81,23.49-33.03,42.64C-20.78,238.81,140.3,358.06,140.3,358.06l1.35,0.9c1.2,18.4,4.2,44.89,4.2,44.89h6h6
		c0,0,3-26.33,4.2-44.89l1.35-1.05C163.57,357.91,324.65,238.81,185.49,62.11z"/>
	<path class="st0" d="M151.41,19.35c-2.85,4.04-16.81,23.49-33.03,42.64C-20.78,238.7,140.3,357.95,140.3,357.95l1.35,0.9
		c1.2,18.4,4.2,44.89,4.2,44.89h6C151.71,275.61,151.56,147.48,151.41,19.35z"/>
	<path class="st2" d="M149.17,150.11c23.36,0,46.73,0,70.09,0c-22.97,16.52-45.95,33.04-68.92,49.56c15.55,0,31.1,0,46.64,0
		c-34.12,24.44-68.24,48.88-102.36,73.32C112.81,232.02,130.99,191.06,149.17,150.11z"/>
</g>
</svg>
